# xmcd
#
# Track frame offsets: 
#        150
#        22922
#        36555
#        54107
#        70247
#        83460
#        99427
#        114042
#        140830
#        156905
#        174117
#        187262
#
# Disc length: 2655 seconds
#
# Revision: 3
# Processed by: cddbd v1.5.2PL0 Copyright (c) Steve Scherf et al.
# Submitted via: ExactAudioCopy v0.99pb5
#
DISCID=920a5d0c
DTITLE=Fábio Junior - Coleção Sucessos ''Fábio Junior''
DYEAR=1991
DGENRE=MPB
TTITLE0=Pai
TTITLE1=Quero colo
TTITLE2=20 e poucos anos
TTITLE3=O que é que há
TTITLE4=Esses moços
TTITLE5=Sem problemas
TTITLE6=Enrosca
TTITLE7=Seu melhor amigo
TTITLE8=Como é grande meu amor por você
TTITLE9=Olhos negros
TTITLE10=Eu me rendo
TTITLE11=Nervos de aço
EXTD=\n\n
EXTT0=
EXTT1=
EXTT2=
EXTT3=
EXTT4=
EXTT5=
EXTT6=
EXTT7=
EXTT8=
EXTT9=
EXTT10=
EXTT11=
PLAYORDER=
